<?xml version="1.0" standalone="no"?><!DOCTYPE svg PUBLIC "-//W3C//DTD SVG 1.1//EN" "http://www.w3.org/Graphics/SVG/1.1/DTD/svg11.dtd"><svg t="1697445935055" class="icon" viewBox="0 0 1255 1024" version="1.1" xmlns="http://www.w3.org/2000/svg" p-id="1491" data-darkreader-inline-fill="" xmlns:xlink="http://www.w3.org/1999/xlink" width="245.1171875" height="200"><path d="M849.19329 308.554323c13.906581 0 27.813161 0 41.752775 2.312258C851.637677 132.261161 661.272774 0 443.127742 0 199.514839 0 0 167.044129 0 375.841032c0 120.633806 65.007484 222.703484 176.293161 299.338323L132.129032 807.473548l155.416774-76.502709c55.659355 11.627355 99.790452 23.122581 155.449807 23.12258 13.873548 0 27.813161 0 44.131097-2.246193a312.154839 312.154839 0 0 1-13.906581-92.820645c0.132129-192.611097 164.930065-350.472258 375.973161-350.472258zM610.171871 187.953548c34.782968 0 55.659355 23.122581 55.659355 55.626323s-23.122581 55.659355-55.659355 55.659355c-34.749935 0-67.253677-23.287742-67.253677-55.659355 0-34.749935 34.915097-55.626323 67.253677-55.626323zM303.170065 291.674839c-35.047226 0-67.848258-22.990452-67.848259-55.064774 0-34.485677 35.080258-55.064774 67.848259-55.064775 32.801032 0 56.055742 22.990452 56.055741 55.064775 0.165161 32.206452-23.25471 55.064774-56.055741 55.064774z" fill="#24DB5A" p-id="1492" data-darkreader-inline-fill="" style="--darkreader-inline-fill: #1daf62;"></path><path d="M1253.012645 654.336c0-178.704516-176.293161-322.493935-375.841032-322.493935-211.208258 0-378.252387 146.200774-378.252387 322.493935 0 178.704516 167.044129 322.460903 378.219355 322.460903 44.164129 0 88.196129-11.627355 132.294193-23.12258l120.666839 67.253677-32.503742-111.417806c88.130065-67.253677 155.416774-155.416774 155.416774-255.174194z m-498.919226-55.659355c-20.843355 0-44.131097-20.843355-44.131096-44.131097 0-20.876387 23.122581-44.131097 44.131096-44.131096 32.503742 0 55.659355 23.122581 55.659355 44.131096 0 23.287742-20.876387 44.131097-55.659355 44.131097z m252.663742-10.768516c-21.008516 0-44.428387-20.744258-44.428387-43.602581 0-20.711226 23.419871-43.569548 44.428387-43.569548 32.768 0 56.055742 22.990452 56.055742 43.602581 0 22.990452-23.287742 43.569548-56.055742 43.569548z" fill="#24DB5A" p-id="1493" data-darkreader-inline-fill="" style="--darkreader-inline-fill: #1daf62;"></path></svg>